<svg width="70" height="14" viewBox="0 0 70 14" fill="none" xmlns="http://www.w3.org/2000/svg">
<path d="M5.26367 9.03809C5.26367 8.69629 5.13379 8.43197 4.87402 8.24512C4.61882 8.05371 4.16992 7.88965 3.52734 7.75293C2.88932 7.61621 2.38118 7.45215 2.00293 7.26074C1.62923 7.06934 1.35124 6.84147 1.16895 6.57715C0.991211 6.31283 0.902344 5.99837 0.902344 5.63379C0.902344 5.02767 1.15755 4.51497 1.66797 4.0957C2.18294 3.67643 2.83919 3.4668 3.63672 3.4668C4.47526 3.4668 5.1543 3.68327 5.67383 4.11621C6.19792 4.54915 6.45996 5.10286 6.45996 5.77734H5.18848C5.18848 5.43099 5.04036 5.13249 4.74414 4.88184C4.45247 4.63118 4.08333 4.50586 3.63672 4.50586C3.17643 4.50586 2.81641 4.60612 2.55664 4.80664C2.29688 5.00716 2.16699 5.26921 2.16699 5.59277C2.16699 5.89811 2.28776 6.12826 2.5293 6.2832C2.77083 6.43815 3.20605 6.58626 3.83496 6.72754C4.46842 6.86882 4.98112 7.03743 5.37305 7.2334C5.76497 7.42936 6.05436 7.66634 6.24121 7.94434C6.43262 8.21777 6.52832 8.55273 6.52832 8.94922C6.52832 9.61003 6.264 10.141 5.73535 10.542C5.20671 10.9385 4.52083 11.1367 3.67773 11.1367C3.08529 11.1367 2.5612 11.0319 2.10547 10.8223C1.64974 10.6126 1.29199 10.321 1.03223 9.94727C0.777018 9.56901 0.649414 9.16113 0.649414 8.72363H1.91406C1.93685 9.14746 2.10547 9.4847 2.41992 9.73535C2.73893 9.98145 3.1582 10.1045 3.67773 10.1045C4.15625 10.1045 4.53906 10.0088 4.82617 9.81738C5.11784 9.62142 5.26367 9.36165 5.26367 9.03809ZM14.4238 7.38379C14.4238 8.50944 14.1663 9.41634 13.6514 10.1045C13.1364 10.7926 12.4391 11.1367 11.5596 11.1367C10.6618 11.1367 9.9554 10.8519 9.44043 10.2822V13.8438H8.17578V3.60352H9.33105L9.39258 4.42383C9.90755 3.78581 10.623 3.4668 11.5391 3.4668C12.4277 3.4668 13.1296 3.80176 13.6445 4.47168C14.1641 5.1416 14.4238 6.07357 14.4238 7.26758V7.38379ZM13.1592 7.24023C13.1592 6.40625 12.9814 5.74772 12.626 5.26465C12.2705 4.78158 11.7829 4.54004 11.1631 4.54004C10.3975 4.54004 9.82324 4.87956 9.44043 5.55859V9.09277C9.81868 9.76725 10.3975 10.1045 11.1768 10.1045C11.7829 10.1045 12.2637 9.86523 12.6191 9.38672C12.9792 8.90365 13.1592 8.18815 13.1592 7.24023ZM22.2988 7.38379C22.2988 8.514 22.0391 9.42318 21.5195 10.1113C21 10.7949 20.3027 11.1367 19.4277 11.1367C18.4935 11.1367 17.7712 10.8063 17.2607 10.1455L17.1992 11H16.0371V0.5H17.3018V4.41699C17.8122 3.78353 18.5163 3.4668 19.4141 3.4668C20.3118 3.4668 21.016 3.80632 21.5264 4.48535C22.0413 5.16439 22.2988 6.09408 22.2988 7.27441V7.38379ZM21.0342 7.24023C21.0342 6.37891 20.8678 5.71354 20.5352 5.24414C20.2025 4.77474 19.724 4.54004 19.0996 4.54004C18.2656 4.54004 17.6663 4.92741 17.3018 5.70215V8.90137C17.6891 9.67611 18.293 10.0635 19.1133 10.0635C19.7194 10.0635 20.1911 9.82878 20.5283 9.35938C20.8656 8.88997 21.0342 8.18359 21.0342 7.24023ZM30.1465 7.38379C30.1465 8.50944 29.889 9.41634 29.374 10.1045C28.859 10.7926 28.1618 11.1367 27.2822 11.1367C26.3844 11.1367 25.6781 10.8519 25.1631 10.2822V13.8438H23.8984V3.60352H25.0537L25.1152 4.42383C25.6302 3.78581 26.3457 3.4668 27.2617 3.4668C28.1504 3.4668 28.8522 3.80176 29.3672 4.47168C29.8867 5.1416 30.1465 6.07357 30.1465 7.26758V7.38379ZM28.8818 7.24023C28.8818 6.40625 28.7041 5.74772 28.3486 5.26465C27.9932 4.78158 27.5055 4.54004 26.8857 4.54004C26.1201 4.54004 25.5459 4.87956 25.1631 5.55859V9.09277C25.5413 9.76725 26.1201 10.1045 26.8994 10.1045C27.5055 10.1045 27.9863 9.86523 28.3418 9.38672C28.7018 8.90365 28.8818 8.18815 28.8818 7.24023ZM36.3262 11C36.2533 10.8542 36.194 10.5944 36.1484 10.2207C35.5605 10.8314 34.8587 11.1367 34.043 11.1367C33.3138 11.1367 32.7145 10.9316 32.2451 10.5215C31.7803 10.1068 31.5479 9.58268 31.5479 8.94922C31.5479 8.17904 31.8395 7.58203 32.4229 7.1582C33.0107 6.72982 33.8356 6.51562 34.8975 6.51562H36.1279V5.93457C36.1279 5.49251 35.9958 5.1416 35.7314 4.88184C35.4671 4.61751 35.0775 4.48535 34.5625 4.48535C34.1113 4.48535 33.7331 4.59928 33.4277 4.82715C33.1224 5.05501 32.9697 5.33073 32.9697 5.6543H31.6982C31.6982 5.28516 31.8281 4.92969 32.0879 4.58789C32.3522 4.24154 32.7077 3.9681 33.1543 3.76758C33.6055 3.56706 34.0999 3.4668 34.6377 3.4668C35.4899 3.4668 36.1576 3.68099 36.6406 4.10938C37.1237 4.5332 37.3743 5.11882 37.3926 5.86621V9.27051C37.3926 9.94954 37.4792 10.4896 37.6523 10.8906V11H36.3262ZM34.2275 10.0361C34.624 10.0361 35 9.93359 35.3555 9.72852C35.7109 9.52344 35.9684 9.25684 36.1279 8.92871V7.41113H35.1367C33.5872 7.41113 32.8125 7.86458 32.8125 8.77148C32.8125 9.16797 32.9447 9.47786 33.209 9.70117C33.4733 9.92448 33.8128 10.0361 34.2275 10.0361ZM40.5713 3.60352L40.6123 4.5332C41.1774 3.82227 41.9157 3.4668 42.8271 3.4668C44.3903 3.4668 45.1787 4.34863 45.1924 6.1123V11H43.9277V6.10547C43.9232 5.57227 43.8001 5.17806 43.5586 4.92285C43.3216 4.66764 42.9502 4.54004 42.4443 4.54004C42.0342 4.54004 41.6742 4.64941 41.3643 4.86816C41.0544 5.08691 40.8128 5.37402 40.6396 5.72949V11H39.375V3.60352H40.5713ZM46.7646 7.2334C46.7646 6.50879 46.9059 5.8571 47.1885 5.27832C47.4756 4.69954 47.8721 4.25293 48.3779 3.93848C48.8883 3.62402 49.4694 3.4668 50.1211 3.4668C51.1283 3.4668 51.9417 3.81543 52.5615 4.5127C53.1859 5.20996 53.498 6.13737 53.498 7.29492V7.38379C53.498 8.10384 53.359 8.75098 53.0811 9.3252C52.8076 9.89486 52.4134 10.3392 51.8984 10.6582C51.388 10.9772 50.8001 11.1367 50.1348 11.1367C49.1322 11.1367 48.3187 10.7881 47.6943 10.0908C47.0745 9.39355 46.7646 8.4707 46.7646 7.32227V7.2334ZM48.0361 7.38379C48.0361 8.2041 48.2253 8.86263 48.6035 9.35938C48.9863 9.85612 49.4967 10.1045 50.1348 10.1045C50.7773 10.1045 51.2878 9.85384 51.666 9.35254C52.0443 8.84668 52.2334 8.1403 52.2334 7.2334C52.2334 6.4222 52.0397 5.76595 51.6523 5.26465C51.2695 4.75879 50.7591 4.50586 50.1211 4.50586C49.4967 4.50586 48.9932 4.75423 48.6104 5.25098C48.2275 5.74772 48.0361 6.45866 48.0361 7.38379ZM55.1113 10.3369C55.1113 10.1182 55.1751 9.93587 55.3027 9.79004C55.4349 9.64421 55.6309 9.57129 55.8906 9.57129C56.1504 9.57129 56.3464 9.64421 56.4785 9.79004C56.6152 9.93587 56.6836 10.1182 56.6836 10.3369C56.6836 10.5465 56.6152 10.722 56.4785 10.8633C56.3464 11.0046 56.1504 11.0752 55.8906 11.0752C55.6309 11.0752 55.4349 11.0046 55.3027 10.8633C55.1751 10.722 55.1113 10.5465 55.1113 10.3369ZM62.3506 4.73828C62.1592 4.70638 61.9518 4.69043 61.7285 4.69043C60.8991 4.69043 60.3363 5.04362 60.04 5.75V11H58.7754V3.60352H60.0059L60.0264 4.45801C60.4411 3.7972 61.029 3.4668 61.79 3.4668C62.0361 3.4668 62.223 3.4987 62.3506 3.5625V4.73828ZM68.0859 10.2686C67.5938 10.8473 66.8714 11.1367 65.9189 11.1367C65.1305 11.1367 64.529 10.9089 64.1143 10.4531C63.7041 9.99284 63.4967 9.3138 63.4922 8.41602V3.60352H64.7568V8.38184C64.7568 9.50293 65.2126 10.0635 66.124 10.0635C67.0902 10.0635 67.7327 9.70345 68.0518 8.9834V3.60352H69.3164V11H68.1133L68.0859 10.2686Z" fill="white"/>
</svg>
