<svg width="128" height="767" viewBox="0 0 128 767" fill="none" xmlns="http://www.w3.org/2000/svg">
<path d="M21.3333 657.187V684.813C21.3333 686.92 23.6533 688.2 25.4399 687.053L47.1466 673.24C48.7999 672.2 48.7999 669.8 47.1466 668.733L25.4399 654.947C23.6533 653.8 21.3333 655.08 21.3333 657.187Z" fill="white"/>
<path d="M85.3333 689.667C88.2667 689.667 90.6667 687.267 90.6667 684.333V657.667C90.6667 654.733 88.2667 652.333 85.3333 652.333C82.4 652.333 80 654.733 80 657.667V684.333C80 687.267 82.4 689.667 85.3333 689.667ZM101.333 657.667V684.333C101.333 687.267 103.733 689.667 106.667 689.667C109.6 689.667 112 687.267 112 684.333V657.667C112 654.733 109.6 652.333 106.667 652.333C103.733 652.333 101.333 654.733 101.333 657.667Z" fill="white"/>
<path d="M15.9999 612.333C14.5333 612.333 13.3333 613.533 13.3333 615V623C13.3333 624.467 14.5333 625.667 15.9999 625.667H23.9999C25.4666 625.667 26.6666 624.467 26.6666 623C26.6666 621.533 25.4666 620.333 23.9999 620.333H18.6666V615C18.6666 613.533 17.4666 612.333 15.9999 612.333ZM15.9999 601.667C17.4666 601.667 18.6666 600.467 18.6666 599V593.667H23.9999C25.4666 593.667 26.6666 592.467 26.6666 591C26.6666 589.533 25.4666 588.333 23.9999 588.333H15.9999C14.5333 588.333 13.3333 589.533 13.3333 591V599C13.3333 600.467 14.5333 601.667 15.9999 601.667ZM45.3333 620.333H39.9999C38.5333 620.333 37.3333 621.533 37.3333 623C37.3333 624.467 38.5333 625.667 39.9999 625.667H47.9999C49.4666 625.667 50.6666 624.467 50.6666 623V615C50.6666 613.533 49.4666 612.333 47.9999 612.333C46.5333 612.333 45.3333 613.533 45.3333 615V620.333ZM37.3333 591C37.3333 592.467 38.5333 593.667 39.9999 593.667H45.3333V599C45.3333 600.467 46.5333 601.667 47.9999 601.667C49.4666 601.667 50.6666 600.467 50.6666 599V591C50.6666 589.533 49.4666 588.333 47.9999 588.333H39.9999C38.5333 588.333 37.3333 589.533 37.3333 591Z" fill="white"/>
<path d="M79.9999 617.667H85.3333V623C85.3333 624.467 86.5333 625.667 87.9999 625.667C89.4666 625.667 90.6666 624.467 90.6666 623V615C90.6666 613.533 89.4666 612.333 87.9999 612.333H79.9999C78.5333 612.333 77.3333 613.533 77.3333 615C77.3333 616.467 78.5333 617.667 79.9999 617.667ZM85.3333 596.333H79.9999C78.5333 596.333 77.3333 597.533 77.3333 599C77.3333 600.467 78.5333 601.667 79.9999 601.667H87.9999C89.4666 601.667 90.6666 600.467 90.6666 599V591C90.6666 589.533 89.4666 588.333 87.9999 588.333C86.5333 588.333 85.3333 589.533 85.3333 591V596.333ZM104 625.667C105.467 625.667 106.667 624.467 106.667 623V617.667H112C113.467 617.667 114.667 616.467 114.667 615C114.667 613.533 113.467 612.333 112 612.333H104C102.533 612.333 101.333 613.533 101.333 615V623C101.333 624.467 102.533 625.667 104 625.667ZM106.667 596.333V591C106.667 589.533 105.467 588.333 104 588.333C102.533 588.333 101.333 589.533 101.333 591V599C101.333 600.467 102.533 601.667 104 601.667H112C113.467 601.667 114.667 600.467 114.667 599C114.667 597.533 113.467 596.333 112 596.333H106.667Z" fill="white"/>
<path d="M72 729.667V740.333C72 741.8 73.2 743 74.6667 743H82.6667L91.44 751.773C93.12 753.453 96 752.253 96 749.88V720.093C96 717.72 93.12 716.52 91.44 718.2L82.6667 727H74.6667C73.2 727 72 728.2 72 729.667ZM108 735C108 730.28 105.28 726.227 101.333 724.253V745.72C105.28 743.773 108 739.72 108 735ZM101.333 714.867V715.4C101.333 716.413 102 717.293 102.933 717.667C109.813 720.413 114.667 727.16 114.667 735C114.667 742.84 109.813 749.587 102.933 752.333C101.973 752.707 101.333 753.587 101.333 754.6V755.133C101.333 756.813 103.013 757.987 104.56 757.4C113.6 753.96 120 745.24 120 735C120 724.76 113.6 716.04 104.56 712.6C103.013 711.987 101.333 713.187 101.333 714.867V714.867Z" fill="white"/>
<path d="M103.067 140.28L89.7333 135.613C88.6133 135.213 87.3867 135.213 86.2667 135.587L75.6267 139.16C73.4667 139.907 72 141.933 72 144.227V175.827C72 179.587 75.76 182.147 79.2533 180.787L87.0667 177.747C87.6533 177.507 88.32 177.507 88.9067 177.72L102.24 182.387C103.36 182.787 104.587 182.787 105.707 182.413L116.347 178.84C118.507 178.12 119.973 176.067 119.973 173.773V142.173C119.973 138.413 116.213 135.853 112.72 137.213L104.907 140.253C104.32 140.467 103.68 140.493 103.067 140.28V140.28ZM104 177.373L88 171.747V140.627L104 146.253V177.373Z" fill="white"/>
<path d="M85.6533 279.773L96 290.12L106.347 279.773C107.387 278.733 109.067 278.733 110.107 279.773C111.147 280.813 111.147 282.493 110.107 283.533L97.8667 295.773C96.8267 296.813 95.1467 296.813 94.1067 295.773L81.8667 283.533C80.8267 282.493 80.8267 280.813 81.8667 279.773C82.9067 278.76 84.6133 278.733 85.6533 279.773V279.773Z" fill="white"/>
<path d="M39.2265 233.347L28.8799 223L39.2265 212.653C40.2665 211.613 40.2665 209.933 39.2265 208.893C38.1865 207.853 36.5065 207.853 35.4665 208.893L23.2265 221.133C22.1865 222.173 22.1865 223.853 23.2265 224.893L35.4665 237.133C36.5065 238.173 38.1865 238.173 39.2265 237.133C40.2399 236.093 40.2665 234.387 39.2265 233.347Z" fill="white"/>
<path d="M88.7734 233.347L99.1201 223L88.7734 212.653C87.7334 211.613 87.7334 209.933 88.7734 208.893C89.8134 207.853 91.4934 207.853 92.5334 208.893L104.773 221.133C105.813 222.173 105.813 223.853 104.773 224.893L92.5334 237.133C91.4934 238.173 89.8134 238.173 88.7734 237.133C87.7601 236.093 87.7334 234.387 88.7734 233.347Z" fill="white"/>
<path d="M21.6533 294.227L32 283.88L42.3467 294.227C43.3867 295.267 45.0667 295.267 46.1067 294.227C47.1467 293.187 47.1467 291.507 46.1067 290.467L33.8667 278.227C32.8267 277.187 31.1467 277.187 30.1067 278.227L17.8667 290.467C16.8267 291.507 16.8267 293.187 17.8667 294.227C18.9067 295.24 20.6133 295.267 21.6533 294.227V294.227Z" fill="white"/>
<path d="M51.8134 737.613C51.9201 736.76 52.0001 735.907 52.0001 735C52.0001 734.093 51.9201 733.24 51.8134 732.387L57.4401 727.987C57.9467 727.587 58.0801 726.867 57.7601 726.28L52.4267 717.053C52.1067 716.467 51.3867 716.253 50.8001 716.467L44.1601 719.133C42.7734 718.067 41.2801 717.187 39.6534 716.52L38.6401 709.453C38.5601 708.813 38.0001 708.333 37.3334 708.333H26.6667C26.0001 708.333 25.4401 708.813 25.3601 709.453L24.3467 716.52C22.7201 717.187 21.2267 718.093 19.8401 719.133L13.2001 716.467C12.5867 716.227 11.8934 716.467 11.5734 717.053L6.24006 726.28C5.89339 726.867 6.05339 727.587 6.56006 727.987L12.1867 732.387C12.0801 733.24 12.0001 734.12 12.0001 735C12.0001 735.88 12.0801 736.76 12.1867 737.613L6.56006 742.013C6.05339 742.413 5.92006 743.133 6.24006 743.72L11.5734 752.947C11.8934 753.533 12.6134 753.747 13.2001 753.533L19.8401 750.867C21.2267 751.933 22.7201 752.813 24.3467 753.48L25.3601 760.547C25.4401 761.187 26.0001 761.667 26.6667 761.667H37.3334C38.0001 761.667 38.5601 761.187 38.6401 760.547L39.6534 753.48C41.2801 752.813 42.7734 751.907 44.1601 750.867L50.8001 753.533C51.4134 753.773 52.1067 753.533 52.4267 752.947L57.7601 743.72C58.0801 743.133 57.9467 742.413 57.4401 742.013L51.8134 737.613V737.613ZM32.0001 744.333C26.8534 744.333 22.6667 740.147 22.6667 735C22.6667 729.853 26.8534 725.667 32.0001 725.667C37.1467 725.667 41.3334 729.853 41.3334 735C41.3334 740.147 37.1467 744.333 32.0001 744.333Z" fill="white"/>
<path d="M78.8801 108.04L94.2667 97.1866C95.7601 96.12 95.7601 93.88 94.2667 92.84L78.8801 81.96C77.0934 80.7333 74.6667 81.9866 74.6667 84.1466V105.853C74.6667 108.013 77.0934 109.267 78.8801 108.04ZM98.6667 84.1466V105.853C98.6667 108.013 101.093 109.267 102.88 108.04L118.267 97.1866C119.76 96.12 119.76 93.88 118.267 92.84L102.88 81.9866C101.093 80.7333 98.6667 81.9866 98.6667 84.1466V84.1466Z" fill="white"/>
<path d="M29.3333 105.853V84.1466C29.3333 81.9866 26.9066 80.7333 25.1199 81.96L9.73328 92.8133C8.23995 93.88 8.23995 96.12 9.73328 97.16L25.1199 108.013C26.9066 109.267 29.3333 108.013 29.3333 105.853ZM33.7599 97.1866L49.1466 108.04C50.9066 109.293 53.36 108.013 53.36 105.853V84.1466C53.36 81.9866 50.9333 80.7333 49.1466 81.96L33.7599 92.8133C32.2399 93.88 32.2399 96.12 33.7599 97.1866Z" fill="white"/>
<path d="M47.9999 353.667H34.6666V367C34.6666 368.467 33.4666 369.667 31.9999 369.667C30.5333 369.667 29.3333 368.467 29.3333 367V353.667H15.9999C14.5333 353.667 13.3333 352.467 13.3333 351C13.3333 349.533 14.5333 348.333 15.9999 348.333H29.3333V335C29.3333 333.533 30.5333 332.333 31.9999 332.333C33.4666 332.333 34.6666 333.533 34.6666 335V348.333H47.9999C49.4666 348.333 50.6666 349.533 50.6666 351C50.6666 352.467 49.4666 353.667 47.9999 353.667Z" fill="white"/>
<path d="M112 353.667H79.9999C78.5333 353.667 77.3333 352.467 77.3333 351C77.3333 349.533 78.5333 348.333 79.9999 348.333H112C113.467 348.333 114.667 349.533 114.667 351C114.667 352.467 113.467 353.667 112 353.667Z" fill="white"/>
<path d="M31.9999 529.667C30.5333 529.667 29.3333 530.867 29.3333 532.333V540.333H21.3333C19.8666 540.333 18.6666 541.533 18.6666 543C18.6666 544.467 19.8666 545.667 21.3333 545.667H29.3333V553.667C29.3333 555.133 30.5333 556.333 31.9999 556.333C33.4666 556.333 34.6666 555.133 34.6666 553.667V545.667H42.6666C44.1333 545.667 45.3333 544.467 45.3333 543C45.3333 541.533 44.1333 540.333 42.6666 540.333H34.6666V532.333C34.6666 530.867 33.4666 529.667 31.9999 529.667ZM31.9999 516.333C17.2799 516.333 5.33325 528.28 5.33325 543C5.33325 557.72 17.2799 569.667 31.9999 569.667C46.7199 569.667 58.6666 557.72 58.6666 543C58.6666 528.28 46.7199 516.333 31.9999 516.333ZM31.9999 564.333C20.2399 564.333 10.6666 554.76 10.6666 543C10.6666 531.24 20.2399 521.667 31.9999 521.667C43.7599 521.667 53.3333 531.24 53.3333 543C53.3333 554.76 43.7599 564.333 31.9999 564.333Z" fill="white"/>
<path d="M82.6666 543C82.6666 544.467 83.8666 545.667 85.3333 545.667H106.667C108.133 545.667 109.333 544.467 109.333 543C109.333 541.533 108.133 540.333 106.667 540.333H85.3333C83.8666 540.333 82.6666 541.533 82.6666 543ZM95.9999 516.333C81.2799 516.333 69.3333 528.28 69.3333 543C69.3333 557.72 81.2799 569.667 95.9999 569.667C110.72 569.667 122.667 557.72 122.667 543C122.667 528.28 110.72 516.333 95.9999 516.333ZM95.9999 564.333C84.2399 564.333 74.6666 554.76 74.6666 543C74.6666 531.24 84.2399 521.667 95.9999 521.667C107.76 521.667 117.333 531.24 117.333 543C117.333 554.76 107.76 564.333 95.9999 564.333Z" fill="white"/>
<path d="M31.9999 412.067C30.3733 412.067 29.0666 413.373 29.0666 415C29.0666 416.627 30.3733 417.933 31.9999 417.933C33.6266 417.933 34.9333 416.627 34.9333 415C34.9333 413.373 33.6266 412.067 31.9999 412.067ZM31.9999 388.333C17.2799 388.333 5.33325 400.28 5.33325 415C5.33325 429.72 17.2799 441.667 31.9999 441.667C46.7199 441.667 58.6666 429.72 58.6666 415C58.6666 400.28 46.7199 388.333 31.9999 388.333ZM37.8399 420.84L15.9999 431L26.1599 409.16L47.9999 399L37.8399 420.84Z" fill="white"/>
<path d="M95.9999 452.333C81.3066 452.333 69.3333 464.307 69.3333 479C69.3333 493.693 81.3066 505.667 95.9999 505.667C110.693 505.667 122.667 493.693 122.667 479C122.667 464.307 110.693 452.333 95.9999 452.333ZM95.9999 500.333C84.2399 500.333 74.6666 490.76 74.6666 479C74.6666 467.24 84.2399 457.667 95.9999 457.667C107.76 457.667 117.333 467.24 117.333 479C117.333 490.76 107.76 500.333 95.9999 500.333Z" fill="white"/>
<path d="M87.2266 479.773L94.1333 472.867C95.1733 471.827 96.8533 471.827 97.8933 472.867L104.8 479.773C106.48 481.453 105.28 484.333 102.907 484.333H89.0933C86.72 484.333 85.5466 481.453 87.2266 479.773Z" fill="white"/>
<path d="M31.9999 452.333C17.3066 452.333 5.33325 464.307 5.33325 479C5.33325 493.693 17.3066 505.667 31.9999 505.667C46.6933 505.667 58.6666 493.693 58.6666 479C58.6666 464.307 46.6933 452.333 31.9999 452.333ZM31.9999 500.333C20.2399 500.333 10.6666 490.76 10.6666 479C10.6666 467.24 20.2399 457.667 31.9999 457.667C43.7599 457.667 53.3333 467.24 53.3333 479C53.3333 490.76 43.7599 500.333 31.9999 500.333Z" fill="white"/>
<path d="M23.2266 478.227L30.1333 485.133C31.1733 486.173 32.8533 486.173 33.8933 485.133L40.8 478.227C42.48 476.547 41.28 473.667 38.9066 473.667H25.0933C22.72 473.667 21.5466 476.547 23.2266 478.227Z" fill="white"/>
<path d="M80.0001 417.667C78.5334 417.667 77.3334 418.867 77.3334 420.333C77.3334 421.8 78.5334 423 80.0001 423C81.4667 423 82.6667 421.8 82.6667 420.333C82.6667 418.867 81.4667 417.667 80.0001 417.667ZM80.0001 428.333C78.5334 428.333 77.3334 429.533 77.3334 431C77.3334 432.467 78.5334 433.667 80.0001 433.667C81.4667 433.667 82.6667 432.467 82.6667 431C82.6667 429.533 81.4667 428.333 80.0001 428.333ZM80.0001 407C78.5334 407 77.3334 408.2 77.3334 409.667C77.3334 411.133 78.5334 412.333 80.0001 412.333C81.4667 412.333 82.6667 411.133 82.6667 409.667C82.6667 408.2 81.4667 407 80.0001 407ZM72.0001 408.333C71.2534 408.333 70.6667 408.92 70.6667 409.667C70.6667 410.413 71.2534 411 72.0001 411C72.7467 411 73.3334 410.413 73.3334 409.667C73.3334 408.92 72.7467 408.333 72.0001 408.333ZM80.0001 396.333C78.5334 396.333 77.3334 397.533 77.3334 399C77.3334 400.467 78.5334 401.667 80.0001 401.667C81.4667 401.667 82.6667 400.467 82.6667 399C82.6667 397.533 81.4667 396.333 80.0001 396.333ZM120 411C120.747 411 121.333 410.413 121.333 409.667C121.333 408.92 120.747 408.333 120 408.333C119.253 408.333 118.667 408.92 118.667 409.667C118.667 410.413 119.253 411 120 411ZM101.333 401.667C102.8 401.667 104 400.467 104 399C104 397.533 102.8 396.333 101.333 396.333C99.8667 396.333 98.6667 397.533 98.6667 399C98.6667 400.467 99.8667 401.667 101.333 401.667ZM101.333 392.333C102.08 392.333 102.667 391.747 102.667 391C102.667 390.253 102.08 389.667 101.333 389.667C100.587 389.667 100 390.253 100 391C100 391.747 100.587 392.333 101.333 392.333ZM72.0001 419C71.2534 419 70.6667 419.587 70.6667 420.333C70.6667 421.08 71.2534 421.667 72.0001 421.667C72.7467 421.667 73.3334 421.08 73.3334 420.333C73.3334 419.587 72.7467 419 72.0001 419ZM90.6667 437.667C89.9201 437.667 89.3334 438.253 89.3334 439C89.3334 439.747 89.9201 440.333 90.6667 440.333C91.4134 440.333 92.0001 439.747 92.0001 439C92.0001 438.253 91.4134 437.667 90.6667 437.667ZM90.6667 392.333C91.4134 392.333 92.0001 391.747 92.0001 391C92.0001 390.253 91.4134 389.667 90.6667 389.667C89.9201 389.667 89.3334 390.253 89.3334 391C89.3334 391.747 89.9201 392.333 90.6667 392.333ZM90.6667 401.667C92.1334 401.667 93.3334 400.467 93.3334 399C93.3334 397.533 92.1334 396.333 90.6667 396.333C89.2001 396.333 88.0001 397.533 88.0001 399C88.0001 400.467 89.2001 401.667 90.6667 401.667ZM90.6667 416.333C88.4534 416.333 86.6667 418.12 86.6667 420.333C86.6667 422.547 88.4534 424.333 90.6667 424.333C92.8801 424.333 94.6667 422.547 94.6667 420.333C94.6667 418.12 92.8801 416.333 90.6667 416.333ZM112 417.667C110.533 417.667 109.333 418.867 109.333 420.333C109.333 421.8 110.533 423 112 423C113.467 423 114.667 421.8 114.667 420.333C114.667 418.867 113.467 417.667 112 417.667ZM112 428.333C110.533 428.333 109.333 429.533 109.333 431C109.333 432.467 110.533 433.667 112 433.667C113.467 433.667 114.667 432.467 114.667 431C114.667 429.533 113.467 428.333 112 428.333ZM112 407C110.533 407 109.333 408.2 109.333 409.667C109.333 411.133 110.533 412.333 112 412.333C113.467 412.333 114.667 411.133 114.667 409.667C114.667 408.2 113.467 407 112 407ZM112 396.333C110.533 396.333 109.333 397.533 109.333 399C109.333 400.467 110.533 401.667 112 401.667C113.467 401.667 114.667 400.467 114.667 399C114.667 397.533 113.467 396.333 112 396.333ZM120 419C119.253 419 118.667 419.587 118.667 420.333C118.667 421.08 119.253 421.667 120 421.667C120.747 421.667 121.333 421.08 121.333 420.333C121.333 419.587 120.747 419 120 419ZM101.333 428.333C99.8667 428.333 98.6667 429.533 98.6667 431C98.6667 432.467 99.8667 433.667 101.333 433.667C102.8 433.667 104 432.467 104 431C104 429.533 102.8 428.333 101.333 428.333ZM101.333 437.667C100.587 437.667 100 438.253 100 439C100 439.747 100.587 440.333 101.333 440.333C102.08 440.333 102.667 439.747 102.667 439C102.667 438.253 102.08 437.667 101.333 437.667ZM90.6667 405.667C88.4534 405.667 86.6667 407.453 86.6667 409.667C86.6667 411.88 88.4534 413.667 90.6667 413.667C92.8801 413.667 94.6667 411.88 94.6667 409.667C94.6667 407.453 92.8801 405.667 90.6667 405.667ZM90.6667 428.333C89.2001 428.333 88.0001 429.533 88.0001 431C88.0001 432.467 89.2001 433.667 90.6667 433.667C92.1334 433.667 93.3334 432.467 93.3334 431C93.3334 429.533 92.1334 428.333 90.6667 428.333ZM101.333 416.333C99.1201 416.333 97.3334 418.12 97.3334 420.333C97.3334 422.547 99.1201 424.333 101.333 424.333C103.547 424.333 105.333 422.547 105.333 420.333C105.333 418.12 103.547 416.333 101.333 416.333ZM101.333 405.667C99.1201 405.667 97.3334 407.453 97.3334 409.667C97.3334 411.88 99.1201 413.667 101.333 413.667C103.547 413.667 105.333 411.88 105.333 409.667C105.333 407.453 103.547 405.667 101.333 405.667Z" fill="white" fill-opacity="0.17"/>
<path d="M5.33341 140.333C6.80008 140.333 8.00008 141.533 8.00008 143V175C8.00008 176.467 6.80008 177.667 5.33341 177.667C3.86675 177.667 2.66675 176.467 2.66675 175V143C2.66675 141.533 3.86675 140.333 5.33341 140.333ZM16.0001 140.333C17.4667 140.333 18.6667 141.533 18.6667 143V175C18.6667 176.467 17.4667 177.667 16.0001 177.667C14.5334 177.667 13.3334 176.467 13.3334 175V143C13.3334 141.533 14.5334 140.333 16.0001 140.333ZM58.6667 140.333H26.6667C25.2001 140.333 24.0001 141.533 24.0001 143V175C24.0001 176.467 25.2001 177.667 26.6667 177.667H58.6667C60.1334 177.667 61.3334 176.467 61.3334 175V143C61.3334 141.533 60.1334 140.333 58.6667 140.333ZM31.0401 170.173L34.9601 165.213C35.4934 164.547 36.4801 164.547 37.0401 165.187L40.7734 169.667L46.3734 162.44C46.9067 161.747 47.9467 161.747 48.4801 162.44L54.3734 170.173C55.0401 171.053 54.4267 172.307 53.3067 172.307H32.0801C30.9867 172.333 30.3467 171.053 31.0401 170.173Z" fill="white"/>
<path d="M40.0001 10.6666C26.6667 10.6666 15.2801 18.96 10.6667 30.6666C15.2801 42.3733 26.6667 50.6666 40.0001 50.6666C53.3334 50.6666 64.7201 42.3733 69.3334 30.6666C64.7201 18.96 53.3334 10.6666 40.0001 10.6666ZM40.0001 44C32.6401 44 26.6667 38.0266 26.6667 30.6666C26.6667 23.3066 32.6401 17.3333 40.0001 17.3333C47.3601 17.3333 53.3334 23.3066 53.3334 30.6666C53.3334 38.0266 47.3601 44 40.0001 44ZM40.0001 22.6666C35.5734 22.6666 32.0001 26.24 32.0001 30.6666C32.0001 35.0933 35.5734 38.6666 40.0001 38.6666C44.4267 38.6666 48.0001 35.0933 48.0001 30.6666C48.0001 26.24 44.4267 22.6666 40.0001 22.6666Z" fill="white"/>
</svg>
