<svg width="128" height="129" viewBox="0 0 128 129" fill="none" xmlns="http://www.w3.org/2000/svg">
<g filter="url(#filter0_d)">
<path d="M63.9998 10.6667C34.5598 10.6667 10.6665 34.5601 10.6665 64.0001C10.6665 93.4401 34.5598 117.333 63.9998 117.333C93.4398 117.333 117.333 93.4401 117.333 64.0001C117.333 34.5601 93.4398 10.6667 63.9998 10.6667ZM34.6665 48.0001L51.4665 31.2001C52.5332 30.1334 54.1865 30.1334 55.2532 31.2001L71.9998 48.0001H58.6665V69.3334H47.9998V48.0001H34.6665ZM76.5332 96.8001C75.4665 97.8667 73.8132 97.8667 72.7465 96.8001L55.9998 80.0001H69.3332V58.6667H79.9998V80.0001H93.3332L76.5332 96.8001Z" fill="white"/>
</g>
<defs>
<filter id="filter0_d" x="-7" y="-3" width="142" height="142" filterUnits="userSpaceOnUse" color-interpolation-filters="sRGB">
<feFlood flood-opacity="0" result="BackgroundImageFix"/>
<feColorMatrix in="SourceAlpha" type="matrix" values="0 0 0 0 0 0 0 0 0 0 0 0 0 0 0 0 0 0 127 0"/>
<feOffset dy="4"/>
<feGaussianBlur stdDeviation="3.5"/>
<feColorMatrix type="matrix" values="0 0 0 0 0 0 0 0 0 0 0 0 0 0 0 0 0 0 0.27 0"/>
<feBlend mode="normal" in2="BackgroundImageFix" result="effect1_dropShadow"/>
<feBlend mode="normal" in="SourceGraphic" in2="effect1_dropShadow" result="shape"/>
</filter>
</defs>
</svg>
